<mxfile host="Electron" agent="Mozilla/5.0 (Windows NT 10.0; Win64; x64) AppleWebKit/537.36 (KHTML, like Gecko) draw.io/26.2.2 Chrome/134.0.6998.178 Electron/35.1.2 Safari/537.36" version="26.2.2">
  <diagram name="第 1 页" id="TlWGwELZM93bQQgw7y3B">
    <mxGraphModel dx="1062" dy="536" grid="1" gridSize="10" guides="1" tooltips="1" connect="1" arrows="1" fold="1" page="1" pageScale="1" pageWidth="2336" pageHeight="1654" math="0" shadow="0">
      <root>
        <mxCell id="0" />
        <mxCell id="1" parent="0" />
        <mxCell id="aBJjE6g9sKPI_umaS-hf-7" value="" style="rounded=0;whiteSpace=wrap;html=1;opacity=20;" parent="1" vertex="1">
          <mxGeometry x="160" y="160" width="640" height="320" as="geometry" />
        </mxCell>
        <mxCell id="aBJjE6g9sKPI_umaS-hf-9" value="源端口号（16bit）" style="rounded=0;whiteSpace=wrap;html=1;fillColor=#dae8fc;strokeColor=#6c8ebf;" parent="1" vertex="1">
          <mxGeometry x="160" y="160" width="320" height="40" as="geometry" />
        </mxCell>
        <mxCell id="aBJjE6g9sKPI_umaS-hf-10" value="目的端口号（16bit）" style="rounded=0;whiteSpace=wrap;html=1;fillColor=#dae8fc;strokeColor=#6c8ebf;" parent="1" vertex="1">
          <mxGeometry x="480" y="160" width="320" height="40" as="geometry" />
        </mxCell>
        <mxCell id="aBJjE6g9sKPI_umaS-hf-11" value="序号" style="rounded=0;whiteSpace=wrap;html=1;fillColor=#f8cecc;strokeColor=#b85450;" parent="1" vertex="1">
          <mxGeometry x="160" y="200" width="640" height="40" as="geometry" />
        </mxCell>
        <mxCell id="aBJjE6g9sKPI_umaS-hf-12" value="确认号" style="rounded=0;whiteSpace=wrap;html=1;fillColor=#f8cecc;strokeColor=#b85450;" parent="1" vertex="1">
          <mxGeometry x="160" y="240" width="640" height="40" as="geometry" />
        </mxCell>
        <mxCell id="aBJjE6g9sKPI_umaS-hf-14" value="数据偏移" style="rounded=0;whiteSpace=wrap;html=1;fillColor=#f5f5f5;fontColor=#333333;strokeColor=#666666;" parent="1" vertex="1">
          <mxGeometry x="160" y="280" width="80" height="40" as="geometry" />
        </mxCell>
        <mxCell id="aBJjE6g9sKPI_umaS-hf-15" value="保留字段" style="rounded=0;whiteSpace=wrap;html=1;" parent="1" vertex="1">
          <mxGeometry x="240" y="280" width="120" height="40" as="geometry" />
        </mxCell>
        <mxCell id="aBJjE6g9sKPI_umaS-hf-29" value="" style="edgeStyle=orthogonalEdgeStyle;rounded=0;orthogonalLoop=1;jettySize=auto;html=1;" parent="1" source="aBJjE6g9sKPI_umaS-hf-16" target="aBJjE6g9sKPI_umaS-hf-28" edge="1">
          <mxGeometry relative="1" as="geometry" />
        </mxCell>
        <mxCell id="aBJjE6g9sKPI_umaS-hf-16" value="&lt;span style=&quot;font-size: 8px;&quot;&gt;URG&amp;nbsp;&lt;/span&gt;" style="rounded=0;whiteSpace=wrap;html=1;fillColor=#f5f5f5;strokeColor=#666666;fontColor=#333333;" parent="1" vertex="1">
          <mxGeometry x="360" y="280" width="20" height="40" as="geometry" />
        </mxCell>
        <mxCell id="aBJjE6g9sKPI_umaS-hf-17" value="&lt;span style=&quot;font-size: 8px;&quot;&gt;ACK&lt;/span&gt;" style="rounded=0;whiteSpace=wrap;html=1;fillColor=#f8cecc;strokeColor=#b85450;" parent="1" vertex="1">
          <mxGeometry x="380" y="280" width="20" height="40" as="geometry" />
        </mxCell>
        <mxCell id="aBJjE6g9sKPI_umaS-hf-19" value="&lt;span style=&quot;font-size: 8px;&quot;&gt;RST&lt;/span&gt;" style="rounded=0;whiteSpace=wrap;html=1;fillColor=#f5f5f5;fontColor=#333333;strokeColor=#666666;" parent="1" vertex="1">
          <mxGeometry x="420" y="280" width="20" height="40" as="geometry" />
        </mxCell>
        <mxCell id="aBJjE6g9sKPI_umaS-hf-20" value="&lt;span style=&quot;font-size: 8px;&quot;&gt;PSH&lt;/span&gt;" style="rounded=0;whiteSpace=wrap;html=1;fillColor=#f5f5f5;fontColor=#333333;strokeColor=#666666;" parent="1" vertex="1">
          <mxGeometry x="400" y="280" width="20" height="40" as="geometry" />
        </mxCell>
        <mxCell id="aBJjE6g9sKPI_umaS-hf-22" value="&lt;span style=&quot;font-size: 8px;&quot;&gt;SYN&lt;/span&gt;" style="rounded=0;whiteSpace=wrap;html=1;fillColor=#f8cecc;strokeColor=#b85450;" parent="1" vertex="1">
          <mxGeometry x="440" y="280" width="20" height="40" as="geometry" />
        </mxCell>
        <mxCell id="aBJjE6g9sKPI_umaS-hf-23" value="&lt;span style=&quot;font-size: 8px;&quot;&gt;FIN&lt;/span&gt;" style="rounded=0;whiteSpace=wrap;html=1;fillColor=#f8cecc;strokeColor=#b85450;" parent="1" vertex="1">
          <mxGeometry x="460" y="280" width="20" height="40" as="geometry" />
        </mxCell>
        <mxCell id="aBJjE6g9sKPI_umaS-hf-24" value="窗口" style="rounded=0;whiteSpace=wrap;html=1;fillColor=#dae8fc;strokeColor=#6c8ebf;" parent="1" vertex="1">
          <mxGeometry x="480" y="280" width="320" height="40" as="geometry" />
        </mxCell>
        <mxCell id="aBJjE6g9sKPI_umaS-hf-25" value="校验和" style="rounded=0;whiteSpace=wrap;html=1;fillColor=#dae8fc;strokeColor=#6c8ebf;" parent="1" vertex="1">
          <mxGeometry x="160" y="320" width="320" height="40" as="geometry" />
        </mxCell>
        <mxCell id="aBJjE6g9sKPI_umaS-hf-26" value="紧急指针" style="rounded=0;whiteSpace=wrap;html=1;fillColor=#f5f5f5;fontColor=#333333;strokeColor=#666666;" parent="1" vertex="1">
          <mxGeometry x="480" y="320" width="320" height="40" as="geometry" />
        </mxCell>
        <mxCell id="aBJjE6g9sKPI_umaS-hf-27" value="选项（长度可变）" style="rounded=0;whiteSpace=wrap;html=1;fillColor=#f5f5f5;fontColor=#333333;strokeColor=#666666;" parent="1" vertex="1">
          <mxGeometry x="160" y="360" width="640" height="40" as="geometry" />
        </mxCell>
        <mxCell id="aBJjE6g9sKPI_umaS-hf-28" value="数据" style="rounded=0;whiteSpace=wrap;html=1;fillColor=#d5e8d4;strokeColor=#82b366;" parent="1" vertex="1">
          <mxGeometry x="160" y="400" width="640" height="80" as="geometry" />
        </mxCell>
        <mxCell id="aBJjE6g9sKPI_umaS-hf-30" value="TCP报文段首部" style="text;html=1;align=center;verticalAlign=middle;whiteSpace=wrap;rounded=0;" parent="1" vertex="1">
          <mxGeometry x="420" y="120" width="120" height="20" as="geometry" />
        </mxCell>
        <mxCell id="aBJjE6g9sKPI_umaS-hf-31" value="" style="whiteSpace=wrap;html=1;" parent="1" vertex="1">
          <mxGeometry x="200" y="597" width="80" height="283" as="geometry" />
        </mxCell>
        <mxCell id="aBJjE6g9sKPI_umaS-hf-32" value="" style="whiteSpace=wrap;html=1;" parent="1" vertex="1">
          <mxGeometry x="540" y="597" width="80" height="283" as="geometry" />
        </mxCell>
        <mxCell id="aBJjE6g9sKPI_umaS-hf-33" value="close" style="rounded=0;whiteSpace=wrap;html=1;fillColor=#f5f5f5;fontColor=#333333;strokeColor=#666666;" parent="1" vertex="1">
          <mxGeometry x="200" y="597" width="80" height="33" as="geometry" />
        </mxCell>
        <mxCell id="aBJjE6g9sKPI_umaS-hf-34" value="close" style="rounded=0;whiteSpace=wrap;html=1;fillColor=#f5f5f5;fontColor=#333333;strokeColor=#666666;" parent="1" vertex="1">
          <mxGeometry x="540" y="597" width="80" height="33" as="geometry" />
        </mxCell>
        <mxCell id="aBJjE6g9sKPI_umaS-hf-36" style="rounded=0;orthogonalLoop=1;jettySize=auto;html=1;exitX=1;exitY=1;exitDx=0;exitDy=0;entryX=0;entryY=1;entryDx=0;entryDy=0;" parent="1" source="aBJjE6g9sKPI_umaS-hf-33" target="aBJjE6g9sKPI_umaS-hf-41" edge="1">
          <mxGeometry relative="1" as="geometry">
            <mxPoint x="540" y="682" as="targetPoint" />
          </mxGeometry>
        </mxCell>
        <mxCell id="aBJjE6g9sKPI_umaS-hf-42" value="SYN,&lt;div&gt;&amp;nbsp;seq num= client_isn&lt;/div&gt;" style="edgeLabel;html=1;align=center;verticalAlign=middle;resizable=0;points=[];" parent="aBJjE6g9sKPI_umaS-hf-36" vertex="1" connectable="0">
          <mxGeometry x="-0.1155" relative="1" as="geometry">
            <mxPoint x="26" y="7" as="offset" />
          </mxGeometry>
        </mxCell>
        <mxCell id="aBJjE6g9sKPI_umaS-hf-39" value="client" style="text;html=1;align=center;verticalAlign=middle;whiteSpace=wrap;rounded=0;" parent="1" vertex="1">
          <mxGeometry x="210" y="560" width="60" height="30" as="geometry" />
        </mxCell>
        <mxCell id="aBJjE6g9sKPI_umaS-hf-40" value="server" style="text;html=1;align=center;verticalAlign=middle;resizable=0;points=[];autosize=1;strokeColor=none;fillColor=none;" parent="1" vertex="1">
          <mxGeometry x="545" y="560" width="60" height="30" as="geometry" />
        </mxCell>
        <mxCell id="aBJjE6g9sKPI_umaS-hf-43" style="rounded=0;orthogonalLoop=1;jettySize=auto;html=1;exitX=0;exitY=1;exitDx=0;exitDy=0;entryX=1;entryY=0.5;entryDx=0;entryDy=0;dashed=1;" parent="1" source="aBJjE6g9sKPI_umaS-hf-41" target="aBJjE6g9sKPI_umaS-hf-31" edge="1">
          <mxGeometry relative="1" as="geometry" />
        </mxCell>
        <mxCell id="aBJjE6g9sKPI_umaS-hf-44" value="SYN +ACK&amp;nbsp;&lt;div&gt;seq num = server_isn&lt;/div&gt;&lt;div&gt;ack num = client_isn + 1&lt;/div&gt;" style="edgeLabel;html=1;align=center;verticalAlign=middle;resizable=0;points=[];" parent="aBJjE6g9sKPI_umaS-hf-43" vertex="1" connectable="0">
          <mxGeometry x="0.0157" relative="1" as="geometry">
            <mxPoint as="offset" />
          </mxGeometry>
        </mxCell>
        <mxCell id="aBJjE6g9sKPI_umaS-hf-41" value="LISTEN" style="rounded=0;whiteSpace=wrap;html=1;fillColor=#dae8fc;strokeColor=#6c8ebf;" parent="1" vertex="1">
          <mxGeometry x="540" y="630" width="80" height="50" as="geometry" />
        </mxCell>
        <mxCell id="aBJjE6g9sKPI_umaS-hf-45" value="SYN-SENT" style="rounded=0;whiteSpace=wrap;html=1;fillColor=#fff2cc;strokeColor=#d6b656;" parent="1" vertex="1">
          <mxGeometry x="200" y="630" width="80" height="110" as="geometry" />
        </mxCell>
        <mxCell id="aBJjE6g9sKPI_umaS-hf-46" style="rounded=0;orthogonalLoop=1;jettySize=auto;html=1;exitX=1;exitY=1;exitDx=0;exitDy=0;entryX=-0.032;entryY=0.706;entryDx=0;entryDy=0;entryPerimeter=0;" parent="1" source="aBJjE6g9sKPI_umaS-hf-45" target="aBJjE6g9sKPI_umaS-hf-32" edge="1">
          <mxGeometry relative="1" as="geometry" />
        </mxCell>
        <mxCell id="aBJjE6g9sKPI_umaS-hf-48" value="ACK&lt;div&gt;ack_num =&amp;nbsp; server_isn + 1&lt;/div&gt;" style="edgeLabel;html=1;align=center;verticalAlign=middle;resizable=0;points=[];" parent="aBJjE6g9sKPI_umaS-hf-46" vertex="1" connectable="0">
          <mxGeometry x="0.0275" y="1" relative="1" as="geometry">
            <mxPoint as="offset" />
          </mxGeometry>
        </mxCell>
        <mxCell id="aBJjE6g9sKPI_umaS-hf-47" value="SYN_RCVD" style="rounded=0;whiteSpace=wrap;html=1;fillColor=#ffe6cc;strokeColor=#d79b00;" parent="1" vertex="1">
          <mxGeometry x="540" y="680" width="80" height="120" as="geometry" />
        </mxCell>
        <mxCell id="aBJjE6g9sKPI_umaS-hf-49" value="ESTABLISHED" style="rounded=0;whiteSpace=wrap;html=1;fillColor=#d5e8d4;strokeColor=#82b366;" parent="1" vertex="1">
          <mxGeometry x="200" y="740" width="80" height="140" as="geometry" />
        </mxCell>
        <mxCell id="aBJjE6g9sKPI_umaS-hf-50" value="ESTABLISHED" style="rounded=0;whiteSpace=wrap;html=1;fillColor=#d5e8d4;strokeColor=#82b366;" parent="1" vertex="1">
          <mxGeometry x="540" y="800" width="80" height="80" as="geometry" />
        </mxCell>
        <mxCell id="aBJjE6g9sKPI_umaS-hf-51" value="TCP的三次握手" style="text;html=1;align=center;verticalAlign=middle;whiteSpace=wrap;rounded=0;" parent="1" vertex="1">
          <mxGeometry x="365" y="550" width="90" height="20" as="geometry" />
        </mxCell>
        <mxCell id="qmFUwoA4kZCBjh9jlcKI-1" value="" style="whiteSpace=wrap;html=1;opacity=0;" vertex="1" parent="1">
          <mxGeometry x="190" y="1040" width="90" height="283" as="geometry" />
        </mxCell>
        <mxCell id="qmFUwoA4kZCBjh9jlcKI-5" value="ESTABLISHED" style="rounded=0;whiteSpace=wrap;html=1;fillColor=#d5e8d4;strokeColor=#82b366;" vertex="1" parent="1">
          <mxGeometry x="190" y="1040" width="90" height="50" as="geometry" />
        </mxCell>
        <mxCell id="qmFUwoA4kZCBjh9jlcKI-6" value="" style="whiteSpace=wrap;html=1;" vertex="1" parent="1">
          <mxGeometry x="540" y="1040" width="90" height="283" as="geometry" />
        </mxCell>
        <mxCell id="qmFUwoA4kZCBjh9jlcKI-7" value="ESTABLISHED" style="rounded=0;whiteSpace=wrap;html=1;fillColor=#d5e8d4;strokeColor=#82b366;" vertex="1" parent="1">
          <mxGeometry x="540" y="1040" width="90" height="80" as="geometry" />
        </mxCell>
        <mxCell id="qmFUwoA4kZCBjh9jlcKI-8" value="客户端" style="text;html=1;align=center;verticalAlign=middle;resizable=0;points=[];autosize=1;strokeColor=none;fillColor=none;" vertex="1" parent="1">
          <mxGeometry x="210" y="1000" width="60" height="30" as="geometry" />
        </mxCell>
        <mxCell id="qmFUwoA4kZCBjh9jlcKI-9" value="服务端" style="text;html=1;align=center;verticalAlign=middle;resizable=0;points=[];autosize=1;strokeColor=none;fillColor=none;" vertex="1" parent="1">
          <mxGeometry x="550" y="998" width="60" height="30" as="geometry" />
        </mxCell>
        <mxCell id="qmFUwoA4kZCBjh9jlcKI-10" style="rounded=0;orthogonalLoop=1;jettySize=auto;html=1;exitX=1;exitY=1;exitDx=0;exitDy=0;entryX=0;entryY=0.279;entryDx=0;entryDy=0;entryPerimeter=0;" edge="1" parent="1" source="qmFUwoA4kZCBjh9jlcKI-5" target="qmFUwoA4kZCBjh9jlcKI-6">
          <mxGeometry relative="1" as="geometry" />
        </mxCell>
        <mxCell id="qmFUwoA4kZCBjh9jlcKI-11" value="FIN" style="edgeLabel;html=1;align=center;verticalAlign=middle;resizable=0;points=[];" vertex="1" connectable="0" parent="qmFUwoA4kZCBjh9jlcKI-10">
          <mxGeometry x="0.0089" y="-1" relative="1" as="geometry">
            <mxPoint as="offset" />
          </mxGeometry>
        </mxCell>
        <mxCell id="qmFUwoA4kZCBjh9jlcKI-38" value="FIN,seq=x" style="edgeLabel;html=1;align=center;verticalAlign=middle;resizable=0;points=[];" vertex="1" connectable="0" parent="qmFUwoA4kZCBjh9jlcKI-10">
          <mxGeometry x="0.009" y="1" relative="1" as="geometry">
            <mxPoint as="offset" />
          </mxGeometry>
        </mxCell>
        <mxCell id="qmFUwoA4kZCBjh9jlcKI-12" style="rounded=0;orthogonalLoop=1;jettySize=auto;html=1;exitX=0;exitY=1;exitDx=0;exitDy=0;entryX=0.989;entryY=0.385;entryDx=0;entryDy=0;entryPerimeter=0;strokeColor=light-dark(#d70909, #ededed);" edge="1" parent="1" source="qmFUwoA4kZCBjh9jlcKI-7" target="qmFUwoA4kZCBjh9jlcKI-1">
          <mxGeometry relative="1" as="geometry" />
        </mxCell>
        <mxCell id="qmFUwoA4kZCBjh9jlcKI-16" value="ACK,seq=y,ack=x+1" style="edgeLabel;html=1;align=center;verticalAlign=middle;resizable=0;points=[];" vertex="1" connectable="0" parent="qmFUwoA4kZCBjh9jlcKI-12">
          <mxGeometry x="0.0102" y="-2" relative="1" as="geometry">
            <mxPoint as="offset" />
          </mxGeometry>
        </mxCell>
        <mxCell id="qmFUwoA4kZCBjh9jlcKI-13" value="FIN_WAIT_1" style="rounded=0;whiteSpace=wrap;html=1;fillColor=#fff2cc;strokeColor=#d6b656;" vertex="1" parent="1">
          <mxGeometry x="190" y="1090" width="90" height="60" as="geometry" />
        </mxCell>
        <mxCell id="qmFUwoA4kZCBjh9jlcKI-33" style="rounded=0;orthogonalLoop=1;jettySize=auto;html=1;exitX=0;exitY=0.5;exitDx=0;exitDy=0;entryX=1;entryY=0.5;entryDx=0;entryDy=0;dashed=1;fillColor=#f5f5f5;strokeColor=#666666;" edge="1" parent="1" source="qmFUwoA4kZCBjh9jlcKI-14" target="qmFUwoA4kZCBjh9jlcKI-17">
          <mxGeometry relative="1" as="geometry" />
        </mxCell>
        <mxCell id="qmFUwoA4kZCBjh9jlcKI-34" value="数据传输" style="edgeLabel;html=1;align=center;verticalAlign=middle;resizable=0;points=[];" vertex="1" connectable="0" parent="qmFUwoA4kZCBjh9jlcKI-33">
          <mxGeometry x="0.0708" y="-2" relative="1" as="geometry">
            <mxPoint x="10" y="3" as="offset" />
          </mxGeometry>
        </mxCell>
        <mxCell id="qmFUwoA4kZCBjh9jlcKI-14" value="CLOSED_WAIT&amp;nbsp;" style="rounded=0;whiteSpace=wrap;html=1;fillColor=#f8cecc;strokeColor=#b85450;" vertex="1" parent="1">
          <mxGeometry x="540" y="1120" width="90" height="40" as="geometry" />
        </mxCell>
        <mxCell id="qmFUwoA4kZCBjh9jlcKI-15" style="rounded=0;orthogonalLoop=1;jettySize=auto;html=1;exitX=0;exitY=1;exitDx=0;exitDy=0;entryX=0.978;entryY=0.537;entryDx=0;entryDy=0;entryPerimeter=0;strokeColor=light-dark(#d93f3f, #ededed);" edge="1" parent="1" source="qmFUwoA4kZCBjh9jlcKI-14" target="qmFUwoA4kZCBjh9jlcKI-1">
          <mxGeometry relative="1" as="geometry" />
        </mxCell>
        <mxCell id="qmFUwoA4kZCBjh9jlcKI-20" value="FIN,seq=w,ack=x+1" style="edgeLabel;html=1;align=center;verticalAlign=middle;resizable=0;points=[];" vertex="1" connectable="0" parent="qmFUwoA4kZCBjh9jlcKI-15">
          <mxGeometry x="-0.0027" y="-3" relative="1" as="geometry">
            <mxPoint x="1" y="9" as="offset" />
          </mxGeometry>
        </mxCell>
        <mxCell id="qmFUwoA4kZCBjh9jlcKI-17" value="FIN_WAIT_2" style="rounded=0;whiteSpace=wrap;html=1;fillColor=#fff2cc;strokeColor=#d6b656;" vertex="1" parent="1">
          <mxGeometry x="190" y="1150" width="90" height="50" as="geometry" />
        </mxCell>
        <mxCell id="qmFUwoA4kZCBjh9jlcKI-18" style="rounded=0;orthogonalLoop=1;jettySize=auto;html=1;exitX=1;exitY=1;exitDx=0;exitDy=0;entryX=-0.044;entryY=0.657;entryDx=0;entryDy=0;entryPerimeter=0;" edge="1" parent="1" source="qmFUwoA4kZCBjh9jlcKI-17" target="qmFUwoA4kZCBjh9jlcKI-6">
          <mxGeometry relative="1" as="geometry" />
        </mxCell>
        <mxCell id="qmFUwoA4kZCBjh9jlcKI-19" value="ACK,seq=x+1,ack=w+1" style="edgeLabel;html=1;align=center;verticalAlign=middle;resizable=0;points=[];" vertex="1" connectable="0" parent="qmFUwoA4kZCBjh9jlcKI-18">
          <mxGeometry x="0.0231" relative="1" as="geometry">
            <mxPoint as="offset" />
          </mxGeometry>
        </mxCell>
        <mxCell id="qmFUwoA4kZCBjh9jlcKI-21" value="LAST_ACK&amp;nbsp;" style="rounded=0;whiteSpace=wrap;html=1;fillColor=#dae8fc;strokeColor=#6c8ebf;" vertex="1" parent="1">
          <mxGeometry x="540" y="1160" width="90" height="70" as="geometry" />
        </mxCell>
        <mxCell id="qmFUwoA4kZCBjh9jlcKI-22" value="CLOSE" style="rounded=0;whiteSpace=wrap;html=1;fillColor=#f5f5f5;fontColor=#333333;strokeColor=#666666;" vertex="1" parent="1">
          <mxGeometry x="190" y="1290" width="90" height="26.5" as="geometry" />
        </mxCell>
        <mxCell id="qmFUwoA4kZCBjh9jlcKI-23" value="CLOSE" style="rounded=0;whiteSpace=wrap;html=1;fillColor=#f5f5f5;fontColor=#333333;strokeColor=#666666;" vertex="1" parent="1">
          <mxGeometry x="540" y="1230" width="90" height="93" as="geometry" />
        </mxCell>
        <mxCell id="qmFUwoA4kZCBjh9jlcKI-26" value="等待&lt;div&gt;2ms&lt;/div&gt;" style="text;html=1;align=center;verticalAlign=middle;whiteSpace=wrap;rounded=0;" vertex="1" parent="1">
          <mxGeometry x="170" y="1250" width="60" height="30" as="geometry" />
        </mxCell>
        <mxCell id="qmFUwoA4kZCBjh9jlcKI-30" style="edgeStyle=orthogonalEdgeStyle;rounded=0;orthogonalLoop=1;jettySize=auto;html=1;exitX=0;exitY=0.25;exitDx=0;exitDy=0;entryX=0.996;entryY=0.414;entryDx=0;entryDy=0;entryPerimeter=0;endArrow=block;endFill=1;startArrow=classic;startFill=1;" edge="1" parent="1" source="qmFUwoA4kZCBjh9jlcKI-7" target="qmFUwoA4kZCBjh9jlcKI-5">
          <mxGeometry relative="1" as="geometry" />
        </mxCell>
        <mxCell id="qmFUwoA4kZCBjh9jlcKI-31" value="数据传输" style="edgeLabel;html=1;align=center;verticalAlign=middle;resizable=0;points=[];" vertex="1" connectable="0" parent="qmFUwoA4kZCBjh9jlcKI-30">
          <mxGeometry x="-0.004" y="-1" relative="1" as="geometry">
            <mxPoint as="offset" />
          </mxGeometry>
        </mxCell>
        <mxCell id="qmFUwoA4kZCBjh9jlcKI-32" value="四次挥手" style="text;html=1;align=center;verticalAlign=middle;resizable=0;points=[];autosize=1;strokeColor=none;fillColor=none;" vertex="1" parent="1">
          <mxGeometry x="375" y="968" width="70" height="30" as="geometry" />
        </mxCell>
        <mxCell id="qmFUwoA4kZCBjh9jlcKI-41" style="edgeStyle=orthogonalEdgeStyle;rounded=0;orthogonalLoop=1;jettySize=auto;html=1;exitX=0.5;exitY=1;exitDx=0;exitDy=0;entryX=0.5;entryY=0;entryDx=0;entryDy=0;dashed=1;" edge="1" parent="1" source="qmFUwoA4kZCBjh9jlcKI-40" target="qmFUwoA4kZCBjh9jlcKI-22">
          <mxGeometry relative="1" as="geometry" />
        </mxCell>
        <mxCell id="qmFUwoA4kZCBjh9jlcKI-40" value="TIME_WAIT" style="rounded=0;whiteSpace=wrap;html=1;fillColor=#dae8fc;strokeColor=#6c8ebf;" vertex="1" parent="1">
          <mxGeometry x="190" y="1200" width="90" height="30" as="geometry" />
        </mxCell>
      </root>
    </mxGraphModel>
  </diagram>
</mxfile>
